<?xml version="1.0" encoding="utf-8"?>
<!-- Generator: Adobe Illustrator 21.0.2, SVG Export Plug-In . SVG Version: 6.00 Build 0)  -->
<svg version="1.1" id="Layer_1" xmlns="http://www.w3.org/2000/svg" xmlns:xlink="http://www.w3.org/1999/xlink" x="0px" y="0px"
	 viewBox="0 0 583.2 290.6" style="enable-background:new 0 0 583.2 290.6;" xml:space="preserve">
<style type="text/css">
	.st0{fill:#F1F2F2;}
	.st1{display:none;}
	.st2{display:inline;fill:#6ECBD2;}
	.st3{display:inline;fill:#C0E1C1;}
	.st4{display:inline;fill:#DD68A1;}
	.st5{display:inline;fill:#FDCA97;}
	.st6{fill:#14499E;}
	.st7{font-family:"Rubik";}
	.st8{font-size:23.561px;}
	.st9{letter-spacing:1;}
	.st10{font-family:'MyriadPro-Semibold';}
	.st11{font-size:52.95px;}
	.st12{fill:#010101;}
</style>
<path class="st0" d="M521.8,224.5h-469c-15.6,0-28.3-12.7-28.3-28.3V87c0-15.6,12.7-28.3,28.3-28.3h469c15.6,0,28.3,12.7,28.3,28.3
	v109.2C550.1,211.7,537.4,224.5,521.8,224.5z"/>
<g>
	<g class="st1">
		<polygon class="st2" points="80.4,77.8 80.4,144.1 80.4,212.8 151.5,144.1 		"/>
		<polygon class="st3" points="169.9,125.4 141.7,109.3 80.4,77.8 151.5,144.1 		"/>
		<polygon class="st4" points="80.4,212.8 80.4,212.8 141.7,179 169.9,162.8 151.5,144.1 		"/>
		<path class="st5" d="M169.9,125.4l-18.5,18.7l18.5,18.7l28.7-16.6c1.7-0.9,1.7-3.1,0-4L169.9,125.4z"/>
	</g>
	<g>
		<g>
			<text transform="matrix(1 0 0 1 268.4535 117.6862)" class="st6 st7 st8 st9">Download on the</text>
			<text transform="matrix(1 0 0 1 268.4525 171.0748)" class="st6 st10 st11">App Store</text>
		</g>
		<g>
			<path id="App_Store" class="st12" d="M87.4,160.5v-20.3c0-1.9,1.5-3.4,3.4-3.4h35.8l-15.6,27H90.8
				C88.9,163.9,87.4,162.4,87.4,160.5z M112.9,202l-11.4,7.8c-1.5,1-2.6,0.4-2.4-1.5l1.5-13.3c0.2-1.8,1.7-2.6,3.3-1.7l8.9,5.1
				C114.4,199.4,114.4,201,112.9,202z M115.7,194.6l-8.9-5.1c-1.6-0.9-2.2-3-1.2-4.6l41-71.1c0.9-1.6,3-2.2,4.6-1.2l8.9,5
				c1.6,0.9,2.2,3,1.2,4.6l-41,71.1C119.4,194.9,117.3,195.5,115.7,194.6z M146.9,163.9l15.6-27h9l12.7,27H146.9z M197.7,172
				c-3.5-1.8-21.2-42.3-25.7-52.9c-4.5-10.6-18.2-38.7-13.8-40.9c3.1-1.6,14.4,20.6,22.9,33.9c8.5,13.3,26.1,47.6,28.3,51.5
				c2.2,3.9-2.1,7.2-4.4,8.2C202.6,172.7,201.2,173.7,197.7,172z M209.3,190.6l-5.3-8.4c-1.1-1.7-0.5-3.9,1.3-4.8l5.1-2.6
				c1.8-0.9,4-0.2,5,1.7l4.2,8.1c1,1.8,0.3,4.2-1.4,5.2l-3.6,2.2C212.7,192.9,210.4,192.3,209.3,190.6z M228.9,212.6
				c-1.1-3.6-9.6-3.8-13.4-9.1c-3.8-5.3-0.7-8.1,0.7-9.3C231.6,185.4,228.9,212.6,228.9,212.6z M236.9,160.5c0,1.9-1.5,3.4-3.4,3.4
				h-17.9c-0.2-1-0.5-2.1-1.1-3.1c-0.5-0.8-1.6-3.1-3.3-6.2c-2.4-4.5-5.8-11-9.4-17.8h31.7c1.9,0,3.4,1.5,3.4,3.4L236.9,160.5
				L236.9,160.5L236.9,160.5z"/>
		</g>
	</g>
</g>
</svg>
