<svg id="Layer_2" data-name="Layer 2" xmlns="http://www.w3.org/2000/svg" viewBox="0 0 250 250"><defs><style>.cls-1{fill:#0d47a1;}</style></defs><title>Artboard 1 copy 5</title><circle class="cls-1" cx="27.31" cy="27.66" r="19.26"/><circle class="cls-1" cx="76.16" cy="27.66" r="19.26"/><circle class="cls-1" cx="125" cy="27.66" r="19.26"/><circle class="cls-1" cx="173.84" cy="27.66" r="19.26"/><circle class="cls-1" cx="222.69" cy="27.66" r="19.26"/><circle class="cls-1" cx="27.31" cy="76.33" r="19.26"/><circle class="cls-1" cx="222.69" cy="76.33" r="19.26"/><circle class="cls-1" cx="27.31" cy="125" r="19.26"/><circle class="cls-1" cx="76.16" cy="125" r="19.26"/><circle class="cls-1" cx="173.84" cy="125" r="19.26"/><circle class="cls-1" cx="222.69" cy="125" r="19.26"/><circle class="cls-1" cx="27.31" cy="173.67" r="19.26"/><circle class="cls-1" cx="76.16" cy="173.67" r="19.26"/><circle class="cls-1" cx="173.84" cy="173.67" r="19.26"/><circle class="cls-1" cx="222.69" cy="173.67" r="19.26"/><circle class="cls-1" cx="27.31" cy="222.34" r="19.26"/><circle class="cls-1" cx="76.16" cy="222.34" r="19.26"/><circle class="cls-1" cx="125" cy="222.34" r="19.26"/><circle class="cls-1" cx="173.84" cy="222.34" r="19.26"/><circle class="cls-1" cx="222.69" cy="222.34" r="19.26"/></svg>