<svg id="Layer_2" data-name="Layer 2" xmlns="http://www.w3.org/2000/svg" viewBox="0 0 873.56 251.01"><defs><style>.cls-1{fill:#fff;}</style></defs><title>Artboard 1 copy 3</title><path class="cls-1" d="M340.88,183H323V88.89h-32.2V73.54h82.29V88.89h-32.2Z"/><path class="cls-1" d="M424.14,184.5q-19.32,0-30.21-11.27T383,142.2q0-20.29,10.11-31.9t27.78-11.6q16.4,0,25.91,10t9.51,27.4v9.51H401.15q.38,12.06,6.51,18.53t17.3,6.48a63.77,63.77,0,0,0,13.66-1.39,71.59,71.59,0,0,0,13.59-4.6v14.3a54,54,0,0,1-13,4.34A79.89,79.89,0,0,1,424.14,184.5ZM420.92,112q-8.39,0-13.44,5.32t-6,15.5H439q-.15-10.26-4.94-15.54T420.92,112Z"/><path class="cls-1" d="M509.72,184.5q-18.79,0-28.56-11t-9.77-31.48q0-20.89,10.22-32.12T511.14,98.7a55.37,55.37,0,0,1,23.58,4.87l-5.32,14.15q-11.16-4.34-18.42-4.34-21.49,0-21.49,28.53,0,13.93,5.35,20.93t15.69,7A45,45,0,0,0,532.78,164v15.35a34.72,34.72,0,0,1-10.07,4A60.49,60.49,0,0,1,509.72,184.5Z"/><path class="cls-1" d="M625.09,183H607.42V132.09q0-9.58-3.86-14.3t-12.24-4.72q-11.08,0-16.28,6.63t-5.2,22.2V183H552.24V66.5h17.59V96.08a138.09,138.09,0,0,1-.9,15.2h1.12a24.44,24.44,0,0,1,10-9.28A32.22,32.22,0,0,1,595,98.7q30.1,0,30.1,30.32Z"/><path class="cls-1" d="M723.93,106.64q0,17.15-11.23,26.28t-32,9.13H669.34v41H651.45V73.54H683q20.52,0,30.74,8.39T723.93,106.64ZM669.34,127h9.51q13.78,0,20.21-4.79t6.44-15q0-9.43-5.77-14.08t-18-4.64H669.34Z"/><path class="cls-1" d="M742.87,78.26q0-4.72,2.58-7.26t7.38-2.55A9.86,9.86,0,0,1,760.05,71q2.58,2.55,2.58,7.26a9.56,9.56,0,0,1-2.58,7.08,9.77,9.77,0,0,1-7.23,2.58q-4.79,0-7.37-2.58A9.56,9.56,0,0,1,742.87,78.26ZM761.51,183H743.92V100.2h17.59Z"/><path class="cls-1" d="M859.52,183H841.85V132.09q0-9.58-3.86-14.3t-12.24-4.72q-11.16,0-16.32,6.59t-5.17,22.09V183H786.67V100.2h13.78l2.47,10.86h.9a24.5,24.5,0,0,1,10.63-9.13,35.64,35.64,0,0,1,15.27-3.22q29.8,0,29.8,30.32Z"/><circle class="cls-1" cx="33.3" cy="28.16" r="19.26"/><circle class="cls-1" cx="82.14" cy="28.16" r="19.26"/><circle class="cls-1" cx="130.98" cy="28.16" r="19.26"/><circle class="cls-1" cx="179.83" cy="28.16" r="19.26"/><circle class="cls-1" cx="228.67" cy="28.16" r="19.26"/><circle class="cls-1" cx="33.3" cy="76.83" r="19.26"/><circle class="cls-1" cx="228.67" cy="76.83" r="19.26"/><circle class="cls-1" cx="33.3" cy="125.5" r="19.26"/><circle class="cls-1" cx="82.14" cy="125.5" r="19.26"/><circle class="cls-1" cx="179.83" cy="125.5" r="19.26"/><circle class="cls-1" cx="228.67" cy="125.5" r="19.26"/><circle class="cls-1" cx="33.3" cy="174.17" r="19.26"/><circle class="cls-1" cx="82.14" cy="174.17" r="19.26"/><circle class="cls-1" cx="179.83" cy="174.17" r="19.26"/><circle class="cls-1" cx="228.67" cy="174.17" r="19.26"/><circle class="cls-1" cx="33.3" cy="222.84" r="19.26"/><circle class="cls-1" cx="82.14" cy="222.84" r="19.26"/><circle class="cls-1" cx="130.98" cy="222.84" r="19.26"/><circle class="cls-1" cx="179.83" cy="222.84" r="19.26"/><circle class="cls-1" cx="228.67" cy="222.84" r="19.26"/></svg>